<svg xmlns="http://www.w3.org/2000/svg" width="250" height="250" fill="none"><path fill="#1F222A" d="M0 0h250v250H0z"/><path fill="#6457E3" fill-rule="evenodd" d="M128.34 184.909c-1.106.06-2.219.091-3.34.091-33.137 0-60-26.863-60-60s26.863-60 60-60 60 26.863 60 60c0 1.121-.031 2.234-.091 3.34l33.203 33.204C222.558 150.224 225 137.897 225 125c0-55.228-44.772-100-100-100S25 69.772 25 125s44.772 100 100 100c12.897 0 25.224-2.442 36.544-6.888l-33.204-33.203Zm35.305-49.548A40.048 40.048 0 0 0 165 125c0-22.091-17.909-40-40-40s-40 17.909-40 40 17.909 40 40 40c3.583 0 7.056-.471 10.361-1.355l50.194 50.194h28.874l.006-.006v-27.676a17.053 17.053 0 0 0-.298-.304l-50.492-50.492Zm39.601 60.814-56.568-56.568-7.071 7.071 56.568 56.568 7.071-7.071Z" clip-rule="evenodd"/></svg>