<?xml version="1.0" standalone="no"?>
<!DOCTYPE svg PUBLIC "-//W3C//DTD SVG 20010904//EN"
 "http://www.w3.org/TR/2001/REC-SVG-20010904/DTD/svg10.dtd">
<svg version="1.0" xmlns="http://www.w3.org/2000/svg"
 width="700.000000pt" height="700.000000pt" viewBox="0 0 700.000000 700.000000"
 preserveAspectRatio="xMidYMid meet">
<metadata>
Created by potrace 1.14, written by Peter Selinger 2001-2017
</metadata>
<g transform="translate(0.000000,700.000000) scale(0.100000,-0.100000)"
fill="#000000" stroke="none">
<path d="M0 3500 l0 -3500 3500 0 3500 0 0 3500 0 3500 -3500 0 -3500 0 0
-3500z m3870 2775 c502 -73 919 -244 1320 -543 152 -113 429 -390 543 -543
296 -396 469 -820 543 -1324 25 -168 25 -562 0 -730 -31 -213 -77 -403 -137
-571 l-32 -86 -462 462 -462 462 -6 146 c-15 362 -115 655 -321 942 -78 109
-247 280 -354 358 -490 360 -1132 432 -1683 187 -198 -88 -351 -195 -514 -360
-265 -267 -421 -586 -470 -962 -131 -1001 656 -1893 1672 -1893 l88 0 464
-464 463 -463 -86 -32 c-173 -62 -349 -104 -572 -137 -167 -25 -561 -25 -729
0 -450 66 -823 206 -1185 447 -418 279 -755 664 -971 1114 -135 281 -207 519
-255 851 -25 167 -25 561 0 729 91 625 341 1141 760 1573 196 201 376 345 589
471 380 223 744 337 1232 385 85 9 465 -4 565 -19z m-225 -1666 c132 -18 226
-47 350 -108 343 -170 564 -481 616 -869 13 -97 6 -262 -15 -358 l-13 -62 708
-708 709 -709 0 -392 0 -393 -403 0 -402 0 -704 704 -703 703 -62 -13 c-33 -8
-108 -17 -166 -20 -290 -18 -577 82 -807 283 -188 164 -325 424 -363 688 -65
461 185 932 607 1144 204 102 431 141 648 110z"/>
<path d="M4007 2992 l-97 -97 793 -793 792 -792 98 98 97 97 -793 793 -792
792 -98 -98z"/>
</g>
</svg>
