<svg width="200" height="200" fill="none" xmlns="http://www.w3.org/2000/svg"><path fill-rule="evenodd" clip-rule="evenodd" d="M103.34 159.909c-1.106.06-2.219.091-3.34.091-33.137 0-60-26.863-60-60s26.863-60 60-60 60 26.863 60 60c0 1.121-.031 2.234-.091 3.34l33.203 33.204C197.558 125.224 200 112.897 200 100 200 44.772 155.228 0 100 0S0 44.772 0 100s44.772 100 100 100c12.897 0 25.224-2.442 36.544-6.888l-33.204-33.203Zm35.305-49.548A40.048 40.048 0 0 0 140 100c0-22.091-17.909-40-40-40s-40 17.909-40 40 17.909 40 40 40c3.583 0 7.056-.471 10.361-1.355l50.194 50.194h28.874l.006-.006v-27.676a17.053 17.053 0 0 0-.298-.304l-50.492-50.492Zm39.601 60.814-56.568-56.568-7.071 7.071 56.568 56.568 7.071-7.071Z" fill="url(#a)"/><defs><linearGradient id="a" x1="200" y1="200" x2="0" y2="0" gradientUnits="userSpaceOnUse"><stop stop-color="#6457E3"/><stop offset="1" stop-color="#4320A0"/></linearGradient></defs></svg>