<svg width="32" height="32" viewBox="0 0 32 32" fill="none" xmlns="http://www.w3.org/2000/svg">
<path d="M0 9.49555C0 4.2513 4.2513 0 9.49555 0H22.5045C27.7487 0 32 4.2513 32 9.49555V22.5045C32 27.7487 27.7487 32 22.5045 32H9.49555C4.2513 32 0 27.7487 0 22.5045V9.49555Z" fill="#191923"/>
<path fill-rule="evenodd" clip-rule="evenodd" d="M15.7626 8.54599C16.287 8.54599 16.7122 8.97112 16.7122 9.49555V22.4095C16.7122 22.9339 16.287 23.3591 15.7626 23.3591C15.2382 23.3591 14.8131 22.9339 14.8131 22.4095V9.49555C14.8131 8.97112 15.2382 8.54599 15.7626 8.54599ZM10.9199 10.0653C11.4443 10.0653 11.8694 10.4904 11.8694 11.0148V20.8902C11.8694 21.4146 11.4443 21.8398 10.9199 21.8398C10.3955 21.8398 9.97033 21.4146 9.97033 20.8902V11.0148C9.97033 10.4904 10.3955 10.0653 10.9199 10.0653ZM20.7003 10.0653C21.2247 10.0653 21.6499 10.4904 21.6499 11.0148V20.8902C21.6499 21.4146 21.2247 21.8398 20.7003 21.8398C20.1759 21.8398 19.7507 21.4146 19.7507 20.8902V11.0148C19.7507 10.4904 20.1759 10.0653 20.7003 10.0653ZM6.07715 12.4392C6.60158 12.4392 7.02671 12.8643 7.02671 13.3887V18.4214C7.02671 18.9458 6.60158 19.3709 6.07715 19.3709C5.55273 19.3709 5.1276 18.9458 5.1276 18.4214V13.3887C5.1276 12.8643 5.55273 12.4392 6.07715 12.4392ZM25.9228 12.4392C26.4473 12.4392 26.8724 12.8643 26.8724 13.3887V18.4214C26.8724 18.9458 26.4473 19.3709 25.9228 19.3709C25.3984 19.3709 24.9733 18.9458 24.9733 18.4214V13.3887C24.9733 12.8643 25.3984 12.4392 25.9228 12.4392Z" fill="white"/>
</svg>
